<svg xmlns="http://www.w3.org/2000/svg" version="1.1" xmlns:xlink="http://www.w3.org/1999/xlink" xmlns:svgjs="http://svgjs.dev/svgjs" width="1000" height="625" viewBox="0 0 1000 625"><g transform="matrix(1,0,0,1,0,0)"><svg viewBox="0 0 512 320" data-background-color="#ffffff" preserveAspectRatio="xMidYMid meet" height="625" width="1000" xmlns="http://www.w3.org/2000/svg" xmlns:xlink="http://www.w3.org/1999/xlink"><g id="tight-bounds" transform="matrix(1,0,0,1,0,0)"><svg viewBox="0 0 512 320" height="320" width="512"><g><svg></svg></g><g><svg viewBox="0 0 512 320" height="320" width="512"><g><path xmlns="http://www.w3.org/2000/svg" d="M96 160c0-88.366 71.634-160 160-160 88.366 0 160 71.634 160 160 0 88.366-71.634 160-160 160-88.366 0-160-71.634-160-160z" fill="#f6db2c" fill-rule="nonzero" stroke="none" stroke-width="1" stroke-linecap="butt" stroke-linejoin="miter" stroke-miterlimit="10" stroke-dasharray="" stroke-dashoffset="0" font-family="none" font-weight="none" font-size="none" text-anchor="none" style="mix-blend-mode: normal" data-fill-palette-color="tertiary"></path></g><g transform="matrix(1,0,0,1,153.6,99.2395575797007)"><svg viewBox="0 0 204.8 121.5208848405986" height="121.5208848405986" width="204.8"><g><svg viewBox="0 0 204.8 121.5208848405986" height="121.5208848405986" width="204.8"><g><svg viewBox="0 0 204.8 121.5208848405986" height="121.5208848405986" width="204.8"><g><svg viewBox="0 0 204.8 121.5208848405986" height="121.5208848405986" width="204.8"><g><svg viewBox="0 0 204.8 121.5208848405986" height="121.5208848405986" width="204.8"><g><svg viewBox="0 0 204.8 121.5208848405986" height="121.5208848405986" width="204.8"><g transform="matrix(1,0,0,1,0,0)"><svg width="204.8" viewBox="11.800000190734863 -40.29999923706055 76.8499984741211 45.599998474121094" height="121.5208848405986" data-palette-color="#2b2a2a"><path d="M11.8-2.8L11.8-2.8Q11.8-4.25 12.83-5.28 13.85-6.3 15.3-6.3L15.3-6.3Q16.75-6.3 17.78-5.28 18.8-4.25 18.8-2.8L18.8-2.8Q18.8-1.35 17.78-0.33 16.75 0.7 15.3 0.7L15.3 0.7Q13.85 0.7 12.83-0.33 11.8-1.35 11.8-2.8ZM36.85 4.2L51.45-40.3 54.95-39.2 40.4 5.3 36.85 4.2ZM84.75 0L84.75-3.8 84.15-3.8Q83.55-2.65 82.62-1.8 81.7-0.95 80.62-0.4 79.55 0.15 78.35 0.43 77.15 0.7 76.05 0.7L76.05 0.7Q73.55 0.7 71.4-0.15 69.25-1 67.62-2.6 66-4.2 65.07-6.58 64.15-8.95 64.15-12L64.15-12 64.15-12.8Q64.15-15.8 65.1-18.18 66.05-20.55 67.65-22.18 69.25-23.8 71.4-24.65 73.55-25.5 75.95-25.5L75.95-25.5Q78.5-25.5 80.72-24.38 82.95-23.25 84.15-20.9L84.15-20.9 84.75-20.9 84.75-35 88.65-35 88.65 0 84.75 0ZM76.45-3L76.45-3Q78.2-3 79.7-3.65 81.2-4.3 82.32-5.5 83.45-6.7 84.1-8.38 84.75-10.05 84.75-12.1L84.75-12.1 84.75-12.7Q84.75-14.7 84.1-16.38 83.45-18.05 82.32-19.25 81.2-20.45 79.67-21.13 78.15-21.8 76.45-21.8L76.45-21.8Q74.7-21.8 73.17-21.15 71.65-20.5 70.52-19.3 69.4-18.1 68.77-16.45 68.15-14.8 68.15-12.8L68.15-12.8 68.15-12Q68.15-9.9 68.77-8.25 69.4-6.6 70.52-5.43 71.65-4.25 73.15-3.63 74.65-3 76.45-3Z" opacity="1" transform="matrix(1,0,0,1,0,0)" fill="#2b2a2a" class="undefined-text-0" data-fill-palette-color="quaternary" id="text-0"></path></svg></g></svg></g></svg></g></svg></g><g></g></svg></g></svg></g></svg></g></svg></g><defs></defs></svg><rect width="512" height="320" fill="none" stroke="none" visibility="hidden"></rect></g></svg></g></svg>